<mxfile host="app.diagrams.net" modified="2022-09-07T03:11:01.749Z" agent="5.0 (Windows NT 10.0; Win64; x64) AppleWebKit/537.36 (KHTML, like Gecko) Chrome/104.0.5112.114 Safari/537.36" etag="mlvq9oIwmsCN3NACGg4r" version="20.2.8" type="github">
  <diagram id="iKEkDsjV-Hw-d5Viwuhs" name="Page-1">
    <mxGraphModel dx="958" dy="476" grid="1" gridSize="10" guides="1" tooltips="1" connect="1" arrows="1" fold="1" page="1" pageScale="1" pageWidth="850" pageHeight="1100" math="0" shadow="0">
      <root>
        <mxCell id="0" />
        <mxCell id="1" parent="0" />
        <mxCell id="-TxidxfEcZ3M2kWxtk1A-1" value="Work Pass Transfer System Process Flow" style="swimlane;rounded=0;shadow=0;" vertex="1" parent="1">
          <mxGeometry x="40" y="20" width="750" height="1070" as="geometry" />
        </mxCell>
        <mxCell id="-TxidxfEcZ3M2kWxtk1A-12" style="edgeStyle=orthogonalEdgeStyle;rounded=0;orthogonalLoop=1;jettySize=auto;html=1;exitX=0.5;exitY=1;exitDx=0;exitDy=0;exitPerimeter=0;" edge="1" parent="-TxidxfEcZ3M2kWxtk1A-1" source="-TxidxfEcZ3M2kWxtk1A-2" target="-TxidxfEcZ3M2kWxtk1A-3">
          <mxGeometry relative="1" as="geometry" />
        </mxCell>
        <mxCell id="-TxidxfEcZ3M2kWxtk1A-2" value="Start" style="strokeWidth=2;html=1;shape=mxgraph.flowchart.start_1;whiteSpace=wrap;rounded=0;fillColor=#d5e8d4;strokeColor=#82b366;" vertex="1" parent="-TxidxfEcZ3M2kWxtk1A-1">
          <mxGeometry x="50" y="60" width="100" height="60" as="geometry" />
        </mxCell>
        <mxCell id="-TxidxfEcZ3M2kWxtk1A-13" style="edgeStyle=orthogonalEdgeStyle;rounded=0;orthogonalLoop=1;jettySize=auto;html=1;exitX=0.5;exitY=1;exitDx=0;exitDy=0;" edge="1" parent="-TxidxfEcZ3M2kWxtk1A-1" source="-TxidxfEcZ3M2kWxtk1A-3" target="-TxidxfEcZ3M2kWxtk1A-4">
          <mxGeometry relative="1" as="geometry" />
        </mxCell>
        <mxCell id="-TxidxfEcZ3M2kWxtk1A-3" value="Insert into TransferRequest table" style="shape=datastore;whiteSpace=wrap;html=1;rounded=0;fillColor=#e1d5e7;strokeColor=#9673a6;" vertex="1" parent="-TxidxfEcZ3M2kWxtk1A-1">
          <mxGeometry x="40" y="170" width="120" height="60" as="geometry" />
        </mxCell>
        <mxCell id="-TxidxfEcZ3M2kWxtk1A-65" style="edgeStyle=orthogonalEdgeStyle;rounded=0;orthogonalLoop=1;jettySize=auto;html=1;exitX=1;exitY=0.5;exitDx=0;exitDy=0;entryX=0;entryY=0.5;entryDx=0;entryDy=0;fontSize=12;endArrow=classic;endFill=1;" edge="1" parent="-TxidxfEcZ3M2kWxtk1A-1" source="-TxidxfEcZ3M2kWxtk1A-4" target="-TxidxfEcZ3M2kWxtk1A-5">
          <mxGeometry relative="1" as="geometry" />
        </mxCell>
        <mxCell id="-TxidxfEcZ3M2kWxtk1A-4" value="Insert into TransferRequestDetail table" style="shape=datastore;whiteSpace=wrap;html=1;rounded=0;fillColor=#e1d5e7;strokeColor=#9673a6;" vertex="1" parent="-TxidxfEcZ3M2kWxtk1A-1">
          <mxGeometry x="40" y="280" width="120" height="60" as="geometry" />
        </mxCell>
        <mxCell id="-TxidxfEcZ3M2kWxtk1A-66" value="Valid" style="edgeStyle=orthogonalEdgeStyle;rounded=0;orthogonalLoop=1;jettySize=auto;html=1;exitX=0.5;exitY=1;exitDx=0;exitDy=0;entryX=0.5;entryY=0;entryDx=0;entryDy=0;fontSize=12;endArrow=classic;endFill=1;" edge="1" parent="-TxidxfEcZ3M2kWxtk1A-1" source="-TxidxfEcZ3M2kWxtk1A-5" target="-TxidxfEcZ3M2kWxtk1A-51">
          <mxGeometry relative="1" as="geometry" />
        </mxCell>
        <mxCell id="-TxidxfEcZ3M2kWxtk1A-68" value="Invalid" style="edgeStyle=orthogonalEdgeStyle;rounded=0;orthogonalLoop=1;jettySize=auto;html=1;exitX=1;exitY=0.5;exitDx=0;exitDy=0;entryX=1;entryY=0.3;entryDx=0;entryDy=0;fontSize=12;endArrow=classic;endFill=1;" edge="1" parent="-TxidxfEcZ3M2kWxtk1A-1" source="-TxidxfEcZ3M2kWxtk1A-5" target="-TxidxfEcZ3M2kWxtk1A-31">
          <mxGeometry relative="1" as="geometry">
            <Array as="points">
              <mxPoint x="630" y="110" />
              <mxPoint x="630" y="648" />
            </Array>
          </mxGeometry>
        </mxCell>
        <mxCell id="-TxidxfEcZ3M2kWxtk1A-5" value="Check valid &lt;br&gt;FIN+DOA" style="rhombus;whiteSpace=wrap;html=1;rounded=0;fillColor=#fff2cc;strokeColor=#d6b656;" vertex="1" parent="-TxidxfEcZ3M2kWxtk1A-1">
          <mxGeometry x="270" y="60" width="100" height="100" as="geometry" />
        </mxCell>
        <mxCell id="-TxidxfEcZ3M2kWxtk1A-22" style="edgeStyle=orthogonalEdgeStyle;rounded=0;orthogonalLoop=1;jettySize=auto;html=1;exitX=0.5;exitY=1;exitDx=0;exitDy=0;entryX=0.5;entryY=0;entryDx=0;entryDy=0;" edge="1" parent="-TxidxfEcZ3M2kWxtk1A-1" source="-TxidxfEcZ3M2kWxtk1A-7" target="-TxidxfEcZ3M2kWxtk1A-18">
          <mxGeometry relative="1" as="geometry" />
        </mxCell>
        <mxCell id="-TxidxfEcZ3M2kWxtk1A-7" value="Call WINSRULES API" style="shape=process;whiteSpace=wrap;html=1;backgroundOutline=1;rounded=0;fillColor=#dae8fc;strokeColor=#6c8ebf;" vertex="1" parent="-TxidxfEcZ3M2kWxtk1A-1">
          <mxGeometry x="440" y="360" width="120" height="60" as="geometry" />
        </mxCell>
        <mxCell id="-TxidxfEcZ3M2kWxtk1A-28" style="edgeStyle=orthogonalEdgeStyle;rounded=0;orthogonalLoop=1;jettySize=auto;html=1;exitX=0.5;exitY=1;exitDx=0;exitDy=0;entryX=0.5;entryY=0;entryDx=0;entryDy=0;" edge="1" parent="-TxidxfEcZ3M2kWxtk1A-1" source="-TxidxfEcZ3M2kWxtk1A-8" target="-TxidxfEcZ3M2kWxtk1A-25">
          <mxGeometry relative="1" as="geometry" />
        </mxCell>
        <mxCell id="-TxidxfEcZ3M2kWxtk1A-8" value="Get DP/LTVP List" style="shape=process;whiteSpace=wrap;html=1;backgroundOutline=1;rounded=0;fillColor=#dae8fc;strokeColor=#6c8ebf;" vertex="1" parent="-TxidxfEcZ3M2kWxtk1A-1">
          <mxGeometry x="260" y="480" width="120" height="60" as="geometry" />
        </mxCell>
        <mxCell id="-TxidxfEcZ3M2kWxtk1A-16" value="Non SPP" style="edgeStyle=orthogonalEdgeStyle;rounded=0;orthogonalLoop=1;jettySize=auto;html=1;exitX=0.5;exitY=1;exitDx=0;exitDy=0;entryX=0.5;entryY=0;entryDx=0;entryDy=0;" edge="1" parent="-TxidxfEcZ3M2kWxtk1A-1" target="-TxidxfEcZ3M2kWxtk1A-8">
          <mxGeometry relative="1" as="geometry">
            <mxPoint x="320" y="430" as="sourcePoint" />
          </mxGeometry>
        </mxCell>
        <mxCell id="-TxidxfEcZ3M2kWxtk1A-17" value="SPP" style="edgeStyle=orthogonalEdgeStyle;rounded=0;orthogonalLoop=1;jettySize=auto;html=1;exitX=1;exitY=0.5;exitDx=0;exitDy=0;entryX=0;entryY=0.5;entryDx=0;entryDy=0;" edge="1" parent="-TxidxfEcZ3M2kWxtk1A-1" source="-TxidxfEcZ3M2kWxtk1A-52" target="-TxidxfEcZ3M2kWxtk1A-7">
          <mxGeometry relative="1" as="geometry">
            <mxPoint x="370" y="380" as="sourcePoint" />
          </mxGeometry>
        </mxCell>
        <mxCell id="-TxidxfEcZ3M2kWxtk1A-19" value="Success" style="edgeStyle=orthogonalEdgeStyle;rounded=0;orthogonalLoop=1;jettySize=auto;html=1;exitX=0;exitY=0.5;exitDx=0;exitDy=0;entryX=1;entryY=0.5;entryDx=0;entryDy=0;" edge="1" parent="-TxidxfEcZ3M2kWxtk1A-1" source="-TxidxfEcZ3M2kWxtk1A-18" target="-TxidxfEcZ3M2kWxtk1A-8">
          <mxGeometry relative="1" as="geometry" />
        </mxCell>
        <mxCell id="-TxidxfEcZ3M2kWxtk1A-20" style="edgeStyle=orthogonalEdgeStyle;rounded=0;orthogonalLoop=1;jettySize=auto;html=1;exitX=1;exitY=0.5;exitDx=0;exitDy=0;entryX=1;entryY=0.5;entryDx=0;entryDy=0;" edge="1" parent="-TxidxfEcZ3M2kWxtk1A-1" source="-TxidxfEcZ3M2kWxtk1A-18" target="-TxidxfEcZ3M2kWxtk1A-7">
          <mxGeometry relative="1" as="geometry">
            <Array as="points">
              <mxPoint x="600" y="510" />
              <mxPoint x="600" y="390" />
            </Array>
          </mxGeometry>
        </mxCell>
        <mxCell id="-TxidxfEcZ3M2kWxtk1A-21" value="Rerun" style="edgeLabel;html=1;align=center;verticalAlign=middle;resizable=0;points=[];rounded=0;" vertex="1" connectable="0" parent="-TxidxfEcZ3M2kWxtk1A-20">
          <mxGeometry x="0.3635" y="4" relative="1" as="geometry">
            <mxPoint as="offset" />
          </mxGeometry>
        </mxCell>
        <mxCell id="-TxidxfEcZ3M2kWxtk1A-38" value="Failed" style="edgeStyle=orthogonalEdgeStyle;rounded=0;orthogonalLoop=1;jettySize=auto;html=1;exitX=0.5;exitY=1;exitDx=0;exitDy=0;entryX=0.5;entryY=0;entryDx=0;entryDy=0;" edge="1" parent="-TxidxfEcZ3M2kWxtk1A-1" source="-TxidxfEcZ3M2kWxtk1A-18" target="-TxidxfEcZ3M2kWxtk1A-31">
          <mxGeometry relative="1" as="geometry" />
        </mxCell>
        <mxCell id="-TxidxfEcZ3M2kWxtk1A-18" value="API Response" style="rhombus;whiteSpace=wrap;html=1;rounded=0;" vertex="1" parent="-TxidxfEcZ3M2kWxtk1A-1">
          <mxGeometry x="450" y="460" width="100" height="100" as="geometry" />
        </mxCell>
        <mxCell id="-TxidxfEcZ3M2kWxtk1A-59" style="edgeStyle=orthogonalEdgeStyle;rounded=0;orthogonalLoop=1;jettySize=auto;html=1;exitX=0.5;exitY=1;exitDx=0;exitDy=0;entryX=0.5;entryY=0;entryDx=0;entryDy=0;fontSize=12;endArrow=classic;endFill=1;" edge="1" parent="-TxidxfEcZ3M2kWxtk1A-1" source="-TxidxfEcZ3M2kWxtk1A-25" target="-TxidxfEcZ3M2kWxtk1A-54">
          <mxGeometry relative="1" as="geometry" />
        </mxCell>
        <mxCell id="-TxidxfEcZ3M2kWxtk1A-25" value="Update Coy table" style="shape=datastore;whiteSpace=wrap;html=1;rounded=0;fillColor=#e1d5e7;strokeColor=#9673a6;" vertex="1" parent="-TxidxfEcZ3M2kWxtk1A-1">
          <mxGeometry x="260" y="590" width="120" height="60" as="geometry" />
        </mxCell>
        <mxCell id="-TxidxfEcZ3M2kWxtk1A-30" style="edgeStyle=orthogonalEdgeStyle;rounded=0;orthogonalLoop=1;jettySize=auto;html=1;exitX=0.5;exitY=1;exitDx=0;exitDy=0;entryX=0.5;entryY=0;entryDx=0;entryDy=0;" edge="1" parent="-TxidxfEcZ3M2kWxtk1A-1" source="-TxidxfEcZ3M2kWxtk1A-26" target="-TxidxfEcZ3M2kWxtk1A-27">
          <mxGeometry relative="1" as="geometry" />
        </mxCell>
        <mxCell id="-TxidxfEcZ3M2kWxtk1A-26" value="Update ApplicationQuota" style="shape=datastore;whiteSpace=wrap;html=1;rounded=0;fillColor=#e1d5e7;strokeColor=#9673a6;" vertex="1" parent="-TxidxfEcZ3M2kWxtk1A-1">
          <mxGeometry x="260" y="840" width="120" height="60" as="geometry" />
        </mxCell>
        <mxCell id="-TxidxfEcZ3M2kWxtk1A-45" style="edgeStyle=orthogonalEdgeStyle;rounded=0;orthogonalLoop=1;jettySize=auto;html=1;exitX=1;exitY=0.5;exitDx=0;exitDy=0;entryX=0;entryY=0.5;entryDx=0;entryDy=0;" edge="1" parent="-TxidxfEcZ3M2kWxtk1A-1" source="-TxidxfEcZ3M2kWxtk1A-27" target="-TxidxfEcZ3M2kWxtk1A-31">
          <mxGeometry relative="1" as="geometry" />
        </mxCell>
        <mxCell id="-TxidxfEcZ3M2kWxtk1A-27" value="Insert into Event Table" style="shape=datastore;whiteSpace=wrap;html=1;rounded=0;fillColor=#e1d5e7;strokeColor=#9673a6;" vertex="1" parent="-TxidxfEcZ3M2kWxtk1A-1">
          <mxGeometry x="260" y="960" width="120" height="60" as="geometry" />
        </mxCell>
        <mxCell id="-TxidxfEcZ3M2kWxtk1A-48" style="edgeStyle=orthogonalEdgeStyle;rounded=0;orthogonalLoop=1;jettySize=auto;html=1;exitX=0.5;exitY=1;exitDx=0;exitDy=0;entryX=0.5;entryY=0;entryDx=0;entryDy=0;" edge="1" parent="-TxidxfEcZ3M2kWxtk1A-1" source="-TxidxfEcZ3M2kWxtk1A-31" target="-TxidxfEcZ3M2kWxtk1A-47">
          <mxGeometry relative="1" as="geometry" />
        </mxCell>
        <mxCell id="-TxidxfEcZ3M2kWxtk1A-31" value="Update TransferRequestDetail&lt;br&gt;table" style="shape=datastore;whiteSpace=wrap;html=1;rounded=0;fillColor=#e1d5e7;strokeColor=#9673a6;" vertex="1" parent="-TxidxfEcZ3M2kWxtk1A-1">
          <mxGeometry x="440" y="630" width="120" height="60" as="geometry" />
        </mxCell>
        <mxCell id="-TxidxfEcZ3M2kWxtk1A-44" style="edgeStyle=orthogonalEdgeStyle;rounded=0;orthogonalLoop=1;jettySize=auto;html=1;exitX=0.5;exitY=1;exitDx=0;exitDy=0;entryX=0.5;entryY=0;entryDx=0;entryDy=0;entryPerimeter=0;" edge="1" parent="-TxidxfEcZ3M2kWxtk1A-1" source="-TxidxfEcZ3M2kWxtk1A-34" target="-TxidxfEcZ3M2kWxtk1A-43">
          <mxGeometry relative="1" as="geometry" />
        </mxCell>
        <mxCell id="-TxidxfEcZ3M2kWxtk1A-34" value="Update TransferRequest table" style="shape=datastore;whiteSpace=wrap;html=1;rounded=0;fillColor=#e1d5e7;strokeColor=#9673a6;" vertex="1" parent="-TxidxfEcZ3M2kWxtk1A-1">
          <mxGeometry x="440" y="880" width="120" height="60" as="geometry" />
        </mxCell>
        <mxCell id="-TxidxfEcZ3M2kWxtk1A-43" value="End" style="strokeWidth=2;html=1;shape=mxgraph.flowchart.start_1;whiteSpace=wrap;rounded=0;fillColor=#d5e8d4;strokeColor=#82b366;" vertex="1" parent="-TxidxfEcZ3M2kWxtk1A-1">
          <mxGeometry x="450" y="990" width="100" height="60" as="geometry" />
        </mxCell>
        <mxCell id="-TxidxfEcZ3M2kWxtk1A-49" value="Yes" style="edgeStyle=orthogonalEdgeStyle;rounded=0;orthogonalLoop=1;jettySize=auto;html=1;exitX=0.5;exitY=1;exitDx=0;exitDy=0;entryX=0.5;entryY=0;entryDx=0;entryDy=0;" edge="1" parent="-TxidxfEcZ3M2kWxtk1A-1" source="-TxidxfEcZ3M2kWxtk1A-47" target="-TxidxfEcZ3M2kWxtk1A-34">
          <mxGeometry relative="1" as="geometry" />
        </mxCell>
        <mxCell id="-TxidxfEcZ3M2kWxtk1A-47" value="Last record processed?" style="rhombus;whiteSpace=wrap;html=1;rounded=0;fillColor=#fff2cc;strokeColor=#d6b656;" vertex="1" parent="-TxidxfEcZ3M2kWxtk1A-1">
          <mxGeometry x="450" y="730" width="100" height="100" as="geometry" />
        </mxCell>
        <mxCell id="-TxidxfEcZ3M2kWxtk1A-67" value="Match" style="edgeStyle=orthogonalEdgeStyle;rounded=0;orthogonalLoop=1;jettySize=auto;html=1;exitX=0.5;exitY=1;exitDx=0;exitDy=0;entryX=0.5;entryY=0;entryDx=0;entryDy=0;fontSize=12;endArrow=classic;endFill=1;" edge="1" parent="-TxidxfEcZ3M2kWxtk1A-1" source="-TxidxfEcZ3M2kWxtk1A-51" target="-TxidxfEcZ3M2kWxtk1A-52">
          <mxGeometry relative="1" as="geometry" />
        </mxCell>
        <mxCell id="-TxidxfEcZ3M2kWxtk1A-51" value="Check &lt;br&gt;source company code by FIN" style="rhombus;whiteSpace=wrap;html=1;rounded=0;fillColor=#fff2cc;strokeColor=#d6b656;" vertex="1" parent="-TxidxfEcZ3M2kWxtk1A-1">
          <mxGeometry x="270" y="200" width="100" height="100" as="geometry" />
        </mxCell>
        <mxCell id="-TxidxfEcZ3M2kWxtk1A-52" value="Get Pass &lt;br&gt;Type by FIN" style="rhombus;whiteSpace=wrap;html=1;rounded=0;fillColor=#fff2cc;strokeColor=#d6b656;" vertex="1" parent="-TxidxfEcZ3M2kWxtk1A-1">
          <mxGeometry x="270" y="340" width="100" height="100" as="geometry" />
        </mxCell>
        <mxCell id="-TxidxfEcZ3M2kWxtk1A-53" value="API Response" style="rhombus;whiteSpace=wrap;html=1;rounded=0;fillColor=#fff2cc;strokeColor=#d6b656;" vertex="1" parent="-TxidxfEcZ3M2kWxtk1A-1">
          <mxGeometry x="450" y="460" width="100" height="100" as="geometry" />
        </mxCell>
        <mxCell id="-TxidxfEcZ3M2kWxtk1A-58" value="Yes" style="edgeStyle=orthogonalEdgeStyle;rounded=0;orthogonalLoop=1;jettySize=auto;html=1;exitX=0.5;exitY=1;exitDx=0;exitDy=0;entryX=0.5;entryY=0;entryDx=0;entryDy=0;fontSize=12;endArrow=classic;endFill=1;" edge="1" parent="-TxidxfEcZ3M2kWxtk1A-1" source="-TxidxfEcZ3M2kWxtk1A-54" target="-TxidxfEcZ3M2kWxtk1A-26">
          <mxGeometry relative="1" as="geometry" />
        </mxCell>
        <mxCell id="-TxidxfEcZ3M2kWxtk1A-60" value="No" style="edgeStyle=orthogonalEdgeStyle;rounded=0;orthogonalLoop=1;jettySize=auto;html=1;exitX=0;exitY=0.5;exitDx=0;exitDy=0;entryX=0;entryY=0.5;entryDx=0;entryDy=0;fontSize=12;endArrow=classic;endFill=1;" edge="1" parent="-TxidxfEcZ3M2kWxtk1A-1" source="-TxidxfEcZ3M2kWxtk1A-54" target="-TxidxfEcZ3M2kWxtk1A-27">
          <mxGeometry relative="1" as="geometry">
            <Array as="points">
              <mxPoint x="220" y="740" />
              <mxPoint x="220" y="990" />
            </Array>
          </mxGeometry>
        </mxCell>
        <mxCell id="-TxidxfEcZ3M2kWxtk1A-54" value="SPP" style="rhombus;whiteSpace=wrap;html=1;rounded=0;fillColor=#fff2cc;strokeColor=#d6b656;" vertex="1" parent="-TxidxfEcZ3M2kWxtk1A-1">
          <mxGeometry x="270" y="690" width="100" height="100" as="geometry" />
        </mxCell>
        <mxCell id="-TxidxfEcZ3M2kWxtk1A-69" value="Not match" style="edgeStyle=orthogonalEdgeStyle;rounded=0;orthogonalLoop=1;jettySize=auto;html=1;exitX=1;exitY=0.5;exitDx=0;exitDy=0;fontSize=12;endArrow=classic;endFill=1;entryX=1;entryY=0.7;entryDx=0;entryDy=0;" edge="1" parent="-TxidxfEcZ3M2kWxtk1A-1" source="-TxidxfEcZ3M2kWxtk1A-51" target="-TxidxfEcZ3M2kWxtk1A-31">
          <mxGeometry relative="1" as="geometry">
            <mxPoint x="650" y="788" as="targetPoint" />
            <Array as="points">
              <mxPoint x="660" y="250" />
              <mxPoint x="660" y="672" />
            </Array>
          </mxGeometry>
        </mxCell>
        <mxCell id="-TxidxfEcZ3M2kWxtk1A-70" value="No" style="edgeStyle=orthogonalEdgeStyle;rounded=0;orthogonalLoop=1;jettySize=auto;html=1;exitX=1;exitY=0.5;exitDx=0;exitDy=0;fontSize=12;endArrow=classic;endFill=1;entryX=0.5;entryY=0;entryDx=0;entryDy=0;" edge="1" parent="-TxidxfEcZ3M2kWxtk1A-1" source="-TxidxfEcZ3M2kWxtk1A-47" target="-TxidxfEcZ3M2kWxtk1A-5">
          <mxGeometry relative="1" as="geometry">
            <mxPoint x="700" y="50" as="targetPoint" />
            <Array as="points">
              <mxPoint x="690" y="780" />
              <mxPoint x="690" y="40" />
              <mxPoint x="320" y="40" />
            </Array>
          </mxGeometry>
        </mxCell>
      </root>
    </mxGraphModel>
  </diagram>
</mxfile>
